# xmcd CD database file
#
# Track frame offsets:
#	150
#	18137
#	33690
#
# Disc length: 687 seconds
#
# Revision: 0
# Processed by: cddbd v1.5PL3 Copyright (c) Steve Scherf et al.
# Submitted via: CDex 1.50beta9
#
DISCID=1a02ad03
DTITLE=Angelina - Pathetic
DYEAR=2004
DGENRE=Pop
TTITLE0=Pathetic
TTITLE1=hey yourself
TTITLE2=Pathetic(Instrumental)
EXTD=YEAR: 2004
EXTT0=
EXTT1=
EXTT2=
PLAYORDER=
